<svg width="24" height="24" viewBox="0 0 24 24"><path fill-rule="evenodd" d="M4 0a4 4 0 00-4 4v16a4 4 0 004 4h16a4 4 0 004-4V4a4 4 0 00-4-4H4zm12.482 15.544c.393-.897.59-1.963.59-3.2v-.817c0-1.248-.212-2.338-.633-3.27-.422-.937-1.026-1.655-1.811-2.153-.78-.498-1.685-.747-2.716-.747-1.008 0-1.904.252-2.69.756-.779.498-1.382 1.219-1.81 2.162-.428.944-.641 2.03-.641 3.261v.923c.011 1.207.23 2.27.659 3.19.433.914 1.04 1.62 1.819 2.118.78.493 1.673.739 2.68.739.47 0 .915-.053 1.337-.158l2.698 2.144 1.151-1.063-2.285-1.793c.71-.504 1.26-1.201 1.652-2.092zM14.48 8.038c.603.814.905 1.975.905 3.48v.95c-.018 1.482-.325 2.622-.923 3.419-.598.79-1.441 1.186-2.531 1.186s-1.943-.422-2.558-1.266c-.61-.843-.914-1.998-.914-3.462v-.94c.018-1.442.331-2.567.94-3.376.616-.814 1.454-1.221 2.514-1.221 1.113 0 1.969.41 2.566 1.23z" clip-rule="evenodd"/></svg>