<svg width="24" height="24" viewBox="0 0 24 24"><path fill-rule="evenodd" d="M4 0a4 4 0 00-4 4v16a4 4 0 004 4h16a4 4 0 004-4V4a4 4 0 00-4-4H4zm7.596 11.14h-1.222v1.328h1.222c.861.011 1.52.216 1.977.615.457.398.686.97.686 1.714 0 .767-.208 1.356-.624 1.766-.416.41-1.017.616-1.802.616-.738 0-1.327-.202-1.767-.607-.439-.404-.659-.943-.659-1.617H7.772c0 1.066.375 1.925 1.125 2.575.756.65 1.735.976 2.936.976 1.201 0 2.177-.337 2.927-1.011.75-.674 1.125-1.585 1.125-2.733 0-.745-.194-1.374-.58-1.89-.381-.516-.923-.885-1.626-1.107a3.236 3.236 0 001.467-1.17c.364-.52.545-1.06.545-1.617 0-1.136-.342-2.024-1.028-2.663-.686-.638-1.632-.958-2.839-.958-1.142 0-2.086.337-2.83 1.011-.738.668-1.107 1.509-1.107 2.523h1.626c0-.663.208-1.193.624-1.591.422-.405.984-.607 1.687-.607 1.494 0 2.241.75 2.241 2.25 0 .668-.22 1.199-.659 1.591-.44.393-1.043.595-1.81.606z" clip-rule="evenodd"/></svg>