<svg width="24" height="24" viewBox="0 0 24 24"><path fill-rule="evenodd" d="M4 0a4 4 0 00-4 4v16a4 4 0 004 4h16a4 4 0 004-4V4a4 4 0 00-4-4H4zm11.059 17.117c.65-.926.975-2.34.975-4.245v-2.11c-.017-1.84-.351-3.199-1.002-4.078-.65-.884-1.664-1.327-3.04-1.327-1.39 0-2.409.457-3.06 1.371-.65.915-.975 2.312-.975 4.193v2.17c.023 1.8.363 3.153 1.02 4.061.656.903 1.667 1.354 3.032 1.354 1.383 0 2.4-.463 3.05-1.389zm-1.23-9.475c.386.627.58 1.63.58 3.006v2.663c-.018 1.336-.224 2.315-.616 2.936-.387.621-.981.932-1.784.932-.815 0-1.424-.328-1.828-.985-.399-.662-.598-1.684-.598-3.067v-2.602c.012-1.3.208-2.264.589-2.891.38-.627.987-.94 1.82-.94.837 0 1.45.316 1.836.949z" clip-rule="evenodd"/></svg>