<svg width="24" height="24" viewBox="0 0 24 24"><path fill-rule="evenodd" d="M4 0a4 4 0 00-4 4v16a4 4 0 004 4h16a4 4 0 004-4V4a4 4 0 00-4-4H4zm4.748 11.097c.662.603 1.717 1.113 3.164 1.529 1.154.334 1.951.674 2.39 1.02.44.34.66.823.66 1.45s-.237 1.122-.712 1.485-1.157.545-2.048.545c-.955 0-1.72-.223-2.294-.668-.568-.451-.852-1.063-.852-1.837H7.359c0 .744.205 1.41.616 1.995.416.586 1.004 1.049 1.766 1.389a6.06 6.06 0 002.461.5c1.354 0 2.435-.31 3.243-.93.809-.628 1.213-1.46 1.213-2.497 0-.65-.146-1.216-.44-1.696-.286-.48-.732-.9-1.335-1.257-.598-.363-1.43-.694-2.496-.993-1.06-.3-1.814-.627-2.26-.985-.439-.363-.658-.805-.658-1.327 0-.65.231-1.157.694-1.52.469-.37 1.12-.554 1.951-.554.897 0 1.591.223 2.083.668.493.44.739 1.046.739 1.82h1.696c0-.71-.19-1.363-.572-1.96-.374-.598-.908-1.067-1.6-1.407-.685-.34-1.467-.51-2.346-.51-1.289 0-2.338.331-3.146.994-.803.656-1.204 1.488-1.204 2.496 0 .89.328 1.64.984 2.25z" clip-rule="evenodd"/></svg>