<svg width="24" height="24" viewBox="0 0 24 24"><path fill-rule="evenodd" d="M4 0a4 4 0 00-4 4v16a4 4 0 004 4h16a4 4 0 004-4V4a4 4 0 00-4-4H4zm5.407 5.533l-.65 6.381 1.3.334.431-.352c.405-.31.961-.465 1.67-.465.774 0 1.392.26 1.855.782.468.515.703 1.201.703 2.057 0 .908-.217 1.62-.65 2.135-.428.516-1.02.774-1.776.774-.691 0-1.248-.185-1.67-.554-.422-.375-.682-.929-.782-1.661H8.3c.1 1.107.507 1.974 1.221 2.601.715.627 1.638.94 2.769.94 1.277 0 2.27-.377 2.98-1.133.714-.762 1.072-1.802 1.072-3.12 0-1.313-.343-2.353-1.028-3.12-.686-.774-1.612-1.16-2.778-1.16-.797 0-1.509.184-2.136.553l.387-3.489h5.177V5.533H9.407z" clip-rule="evenodd"/></svg>