<svg width="24" height="24" viewBox="0 0 24 24"><path fill-rule="evenodd" d="M4 0a4 4 0 00-4 4v16a4 4 0 004 4h16a4 4 0 004-4V4a4 4 0 00-4-4H4zm11.26 10.578c.34-.498.51-1.066.51-1.705 0-1.078-.348-1.934-1.045-2.566-.692-.633-1.6-.95-2.725-.95-1.13 0-2.042.317-2.733.95-.692.632-1.038 1.488-1.038 2.566 0 .633.165 1.198.493 1.696.328.498.776.888 1.344 1.17-.668.286-1.192.708-1.573 1.265a3.276 3.276 0 00-.562 1.872c0 1.101.369 1.983 1.107 2.645.744.657 1.732.985 2.962.985 1.219 0 2.2-.328 2.944-.985.75-.656 1.125-1.538 1.125-2.645 0-.697-.196-1.321-.588-1.872-.387-.551-.915-.97-1.583-1.257a3.405 3.405 0 001.363-1.169zm-1.502 2.514c.457.45.685 1.034.685 1.749 0 .72-.216 1.292-.65 1.714-.434.416-1.031.624-1.793.624-.768 0-1.368-.208-1.802-.624-.427-.416-.641-.988-.641-1.714 0-.727.22-1.313.659-1.758.445-.445 1.034-.668 1.766-.668.733 0 1.325.226 1.776.677zM10.444 7.29c.399-.399.917-.598 1.556-.598.621 0 1.134.205 1.538.616.404.41.607.94.607 1.59 0 .65-.197 1.178-.59 1.582-.386.399-.905.598-1.555.598-.65 0-1.172-.2-1.565-.598-.386-.404-.58-.931-.58-1.582 0-.68.197-1.215.59-1.608z" clip-rule="evenodd"/></svg>