<svg width="24" height="24" viewBox="0 0 24 24"><path fill-rule="evenodd" d="M4 0a4 4 0 00-4 4v16a4 4 0 004 4h16a4 4 0 004-4V4a4 4 0 00-4-4H4zm10.39 6.904v-1.38h-.29c-1.986.03-3.483.668-4.49 1.916-1.003 1.243-1.504 3.041-1.504 5.397v.624c0 1.482.381 2.695 1.143 3.638.762.938 1.755 1.407 2.98 1.407 1.207 0 2.168-.396 2.882-1.187.721-.79 1.081-1.845 1.081-3.164 0-1.242-.334-2.256-1.002-3.04-.662-.786-1.55-1.179-2.663-1.179-1.166 0-2.086.387-2.76 1.16.118-1.318.551-2.34 1.301-3.067.75-.726 1.758-1.101 3.024-1.125h.299zm-3.673 4.887c.468-.334.981-.501 1.538-.501.703 0 1.265.272 1.687.817.428.54.642 1.248.642 2.127 0 .873-.211 1.58-.633 2.118-.416.54-.99.81-1.723.81-.708 0-1.3-.323-1.775-.968-.474-.644-.712-1.494-.712-2.549v-.597a2.61 2.61 0 01.976-1.257z" clip-rule="evenodd"/></svg>