<svg width="24" height="24" viewBox="0 0 24 24"><path fill-rule="evenodd" d="M4 0a4 4 0 00-4 4v16a4 4 0 004 4h16a4 4 0 004-4V4a4 4 0 00-4-4H4zm3.58 5.533V18.33h3.541c1.149-.012 2.153-.26 3.015-.747a4.88 4.88 0 001.995-2.092c.469-.908.703-1.966.703-3.173v-.817c-.006-1.178-.243-2.22-.712-3.129a4.965 4.965 0 00-1.977-2.1c-.856-.493-1.84-.739-2.954-.739H7.58zM9.266 16.95V6.922h1.968c1.254.012 2.221.422 2.9 1.23.686.803 1.03 1.93 1.03 3.384v.747c0 1.494-.364 2.646-1.09 3.454-.721.809-1.732 1.213-3.033 1.213H9.267z" clip-rule="evenodd"/></svg>