<svg width="24" height="24" viewBox="0 0 24 24"><path fill-rule="evenodd" d="M4 0a4 4 0 00-4 4v16a4 4 0 004 4h16a4 4 0 004-4V4a4 4 0 00-4-4H4zm4.01 18.33h8.385v-1.327H9.97l3.428-3.718c1.605-1.74 2.408-3.24 2.408-4.5 0-1.037-.346-1.866-1.037-2.487-.692-.627-1.632-.94-2.822-.94-1.271 0-2.288.363-3.05 1.09-.755.726-1.133 1.678-1.133 2.856H9.39c0-.82.222-1.46.668-1.916.45-.463 1.08-.695 1.89-.695.673 0 1.212.214 1.617.642.404.428.606.975.606 1.643 0 .498-.126.982-.378 1.45-.246.463-.697 1.067-1.353 1.811l-4.43 4.922v1.169z" clip-rule="evenodd"/></svg>